<svg xmlns="http://www.w3.org/2000/svg" version="1.1" xmlns:xlink="http://www.w3.org/1999/xlink" xmlns:svgjs="http://svgjs.dev/svgjs" width="1500" height="1500" viewBox="0 0 1500 1500"><rect width="1500" height="1500" fill="#ffffff"></rect><g transform="matrix(0.6666666666666666,0,0,0.6666666666666666,249.39393939393938,438.5856950067477)"><svg viewBox="0 0 396 247" data-background-color="#dedede" preserveAspectRatio="xMidYMid meet" height="935" width="1500" xmlns="http://www.w3.org/2000/svg" xmlns:xlink="http://www.w3.org/1999/xlink"><g id="tight-bounds" transform="matrix(1,0,0,1,0.2400000000000091,-0.09999999999999432)"><svg viewBox="0 0 395.52 247.2" height="247.2" width="395.52"><g><svg></svg></g><g><svg viewBox="0 0 395.52 247.2" height="247.2" width="395.52"><g transform="matrix(1,0,0,1,75.54432,76.25319148164928)"><svg viewBox="0 0 244.43135999999998 94.69361703670141" height="94.69361703670141" width="244.43135999999998"><g><svg viewBox="0 0 244.43135999999998 94.69361703670141" height="94.69361703670141" width="244.43135999999998"><g><svg viewBox="0 0 244.43135999999998 94.69361703670141" height="94.69361703670141" width="244.43135999999998"><g><svg viewBox="0 0 244.43135999999998 94.69361703670141" height="94.69361703670141" width="244.43135999999998"><g id="textblocktransform"><svg viewBox="0 0 244.43135999999998 94.69361703670141" height="94.69361703670141" width="244.43135999999998" id="textblock"><g><svg viewBox="0 0 244.43135999999998 94.69361703670141" height="94.69361703670141" width="244.43135999999998"><g transform="matrix(1,0,0,1,0,0)"><svg width="244.43135999999998" viewBox="-2.25 -38.05 110.34 42.75" height="94.69361703670141" data-palette-color="#000000"><path d="M22.5-15.3L22.5-15.3Q26.45-12.4 26.45-8.45 26.45-4.5 23.35-2.1 20.25 0.3 15.55 0.3L15.55 0.3Q12.5 0.3 10.48-1.23 8.45-2.75 8.45-5 8.45-7.25 9.95-8.58 11.45-9.9 13.7-10.2L13.7-10.2Q12.65-8.7 12.65-7.33 12.65-5.95 13.6-5.1L13.6-5.1Q14.55-4.25 16-4.25 17.45-4.25 18.4-5.33 19.35-6.4 19.35-7.8L19.35-7.8Q19.35-10.1 17.2-11.9L17.2-11.9Q15.9-12.95 14.4-13.88 12.9-14.8 12.8-14.85L12.8-14.85Q12.6-15 12.4-15.1L12.4-15.1Q11.5-14.05 9.8-12.23 8.1-10.4 7.1-9.3L7.1-9.3Q4.3-6.25 3.95-4.2L3.95-4.2Q3.85-3.8 3.85-2.68 3.85-1.55 4.53-0.35 5.2 0.85 6.15 1.45 7.1 2.05 8.03 2.43 8.95 2.8 9.63 2.95 10.3 3.1 10.3 3.15L10.3 3.15Q10.3 3.5 9.2 3.95L9.2 3.95Q7.15 4.7 4.93 4.7 2.7 4.7 0.6 3.1L0.6 3.1Q-2.25 0.9-2.25-2.75L-2.25-2.75Q-2.25-5-1.1-7.2L-1.1-7.2Q0.95-11.1 8.5-17.9L8.5-17.9Q6.65-19.75 6.65-21.85 6.65-23.95 8.22-25.4 9.8-26.85 11.95-26.85L11.95-26.85Q13.9-26.85 15.35-25.3L15.35-25.3Q16.3-24.25 16.3-22.65 16.3-21.05 15.25-19.05L15.25-19.05Q20.6-16.65 22.5-15.3ZM11.65-20.95L11.65-20.95Q12.85-22.2 12.85-22.75L12.85-22.75Q12.85-24 11.75-24.1L11.75-24.1Q10.5-24.1 10.5-22.7L10.5-22.7Q10.5-21.85 11.65-20.95ZM27.4-16.55L27.85-20.85 46.95-20.85 46.5-16.55 27.4-16.55ZM61.6-34.8L61.6-34.8Q61.6-34.5 60.25-24.05L60.25-24.05 67.59-24.05 67.59-20.2 59.75-20.2 59.6-18.95Q65.45-14.05 65.45-8.25L65.45-8.25Q65.45-3.7 63.12-1.7 60.8 0.3 57.55 0.3 54.3 0.3 52.8-1.43 51.3-3.15 51.3-5.6L51.3-5.6Q51.3-6.15 51.4-6.8L51.4-6.8 52.95-20.1 52.75-20.2 48.7-20.2Q48.65-20.7 48.65-21.83 48.65-22.95 49.1-24.05L49.1-24.05 53.4-24.05 55-37.65Q56.05-38.05 57.8-38.05L57.8-38.05Q61.6-38.05 61.6-34.8ZM62.1-8.3L62.1-8.3Q62.1-11.75 59.1-15.1L59.1-15.1Q58.2-7.65 58.2-6.5L58.2-6.5Q58.2-4.25 59.65-4.25L59.65-4.25Q60.7-4.25 61.4-5.23 62.1-6.2 62.1-8.3ZM76.79-11.2Q79.89-11.85 81.42-13.7 82.94-15.55 82.94-17.28 82.94-19 82.02-19.63 81.09-20.25 79.99-20.25L79.99-20.25Q77.64-20.25 75.87-17.63 74.09-15 74.09-11.38 74.09-7.75 75.82-5.98 77.54-4.2 80.09-4.2L80.09-4.2Q83.84-4.2 87.29-6.8 90.74-9.4 92.89-13.6L92.89-13.6Q93.99-12.55 94.89-11L94.89-11Q93.24-7.25 89.04-3.65L89.04-3.65Q86.94-1.9 84.07-0.8 81.19 0.3 78.14 0.3L78.14 0.3Q73.14 0.3 70.24-2.75L70.24-2.75Q67.14-6.05 67.14-11.2 67.14-16.35 71.02-20.2 74.89-24.05 80.29-24.05L80.29-24.05Q84.14-24.05 86.54-22.38 88.94-20.7 88.99-17.85L88.99-17.85Q88.99-14 85.92-11.6 82.84-9.2 77.49-8.25L77.49-8.25 76.79-11.2ZM102.09-34.8L102.09-34.8Q102.09-34.5 100.74-24.05L100.74-24.05 108.09-24.05 108.09-20.2 100.24-20.2 100.09-18.95Q105.94-14.05 105.94-8.25L105.94-8.25Q105.94-3.7 103.62-1.7 101.29 0.3 98.04 0.3 94.79 0.3 93.29-1.43 91.79-3.15 91.79-5.6L91.79-5.6Q91.79-6.15 91.89-6.8L91.89-6.8 93.44-20.1 93.24-20.2 89.19-20.2Q89.14-20.7 89.14-21.83 89.14-22.95 89.59-24.05L89.59-24.05 93.89-24.05 95.49-37.65Q96.54-38.05 98.29-38.05L98.29-38.05Q102.09-38.05 102.09-34.8ZM102.59-8.3L102.59-8.3Q102.59-11.75 99.59-15.1L99.59-15.1Q98.69-7.65 98.69-6.5L98.69-6.5Q98.69-4.25 100.14-4.25L100.14-4.25Q101.19-4.25 101.89-5.23 102.59-6.2 102.59-8.3Z" opacity="1" transform="matrix(1,0,0,1,0,0)" fill="#000000" class="wordmark-text-0" data-fill-palette-color="primary" id="text-0"></path></svg></g></svg></g></svg></g></svg></g></svg></g></svg></g></svg></g><path d="M222.811 70.253L222.811 17.788 11.187 17.788 11.187 229.412 222.811 229.412 222.811 176.947 214.271 176.947 214.271 220.872 19.726 220.872 19.726 26.328 214.271 26.328 214.271 70.253Z" fill="#000000" stroke="transparent" data-fill-palette-color="primary"></path></svg></g><defs></defs></svg><rect width="395.52" height="247.2" fill="none" stroke="none" visibility="hidden"></rect></g></svg></g></svg>